
  <svg xmlns="http://www.w3.org/2000/svg" width="1600" height="900" viewBox="0 0 1600 900">
    <rect width="1600" height="900" fill="#FFFFFF"/>
    <rect x="0" y="0" width="16" height="900" fill="#D97706"/>
    <text x="70" y="88" font-family="Arial, sans-serif" font-size="52" font-weight="700" fill="#172033" text-anchor="start">The trained policy generalized across maze layouts</text>
    <text x="70" y="128" font-family="Arial, sans-serif" font-size="23" font-weight="400" fill="#667085" text-anchor="start">Base → Iter25 is a large paired gain; Iter25 → Iter31 shows no additional pass-rate improvement</text>
    <text x="90" y="190" font-family="Arial, sans-serif" font-size="28" font-weight="700" fill="#172033" text-anchor="start">Strict pass rate across 50 held-out mazes</text><rect x="90" y="230" width="720" height="470" fill="#FFFFFF" stroke="#D9E1EC"/><line x1="90" y1="700" x2="810" y2="700" stroke="#D9E1EC"/><text x="75" y="707" font-family="Arial, sans-serif" font-size="18" font-weight="400" fill="#667085" text-anchor="end">0%</text><line x1="90" y1="582.5" x2="810" y2="582.5" stroke="#D9E1EC"/><text x="75" y="589.5" font-family="Arial, sans-serif" font-size="18" font-weight="400" fill="#667085" text-anchor="end">25%</text><line x1="90" y1="465" x2="810" y2="465" stroke="#D9E1EC"/><text x="75" y="472" font-family="Arial, sans-serif" font-size="18" font-weight="400" fill="#667085" text-anchor="end">50%</text><line x1="90" y1="347.5" x2="810" y2="347.5" stroke="#D9E1EC"/><text x="75" y="354.5" font-family="Arial, sans-serif" font-size="18" font-weight="400" fill="#667085" text-anchor="end">75%</text><line x1="90" y1="230" x2="810" y2="230" stroke="#D9E1EC"/><text x="75" y="237" font-family="Arial, sans-serif" font-size="18" font-weight="400" fill="#667085" text-anchor="end">100%</text><rect x="160" y="700" width="120" height="0" rx="5" fill="#D14343" opacity="0.88"/><line x1="220" y1="666.4666284073214" x2="220" y2="700" stroke="#172033" stroke-width="3"/><line x1="205" y1="666.4666284073214" x2="235" y2="666.4666284073214" stroke="#172033" stroke-width="3"/><line x1="205" y1="700" x2="235" y2="700" stroke="#172033" stroke-width="3"/><text x="220" y="682" font-family="Arial, sans-serif" font-size="28" font-weight="700" fill="#D14343" text-anchor="middle">0/50</text><text x="220" y="738" font-family="Arial, sans-serif" font-size="22" font-weight="700" fill="#172033" text-anchor="middle">Base Qwen</text><text x="220" y="768" font-family="Arial, sans-serif" font-size="16" font-weight="400" fill="#667085" text-anchor="middle">95% CI 0.0–7.1%</text><rect x="390" y="286.4" width="120" height="413.6" rx="5" fill="#2563EB" opacity="0.88"/><line x1="450" y1="256.40272070938164" x2="450" y2="341.88264170105407" stroke="#172033" stroke-width="3"/><line x1="435" y1="256.40272070938164" x2="465" y2="256.40272070938164" stroke="#172033" stroke-width="3"/><line x1="435" y1="341.88264170105407" x2="465" y2="341.88264170105407" stroke="#172033" stroke-width="3"/><text x="450" y="268.4" font-family="Arial, sans-serif" font-size="28" font-weight="700" fill="#2563EB" text-anchor="middle">44/50</text><text x="450" y="738" font-family="Arial, sans-serif" font-size="22" font-weight="700" fill="#172033" text-anchor="middle">Iter25</text><text x="450" y="768" font-family="Arial, sans-serif" font-size="16" font-weight="400" fill="#667085" text-anchor="middle">95% CI 76.2–94.4%</text><rect x="620" y="286.4" width="120" height="413.6" rx="5" fill="#0F9D6C" opacity="0.88"/><line x1="680" y1="256.40272070938164" x2="680" y2="341.88264170105407" stroke="#172033" stroke-width="3"/><line x1="665" y1="256.40272070938164" x2="695" y2="256.40272070938164" stroke="#172033" stroke-width="3"/><line x1="665" y1="341.88264170105407" x2="695" y2="341.88264170105407" stroke="#172033" stroke-width="3"/><text x="680" y="268.4" font-family="Arial, sans-serif" font-size="28" font-weight="700" fill="#0F9D6C" text-anchor="middle">44/50</text><text x="680" y="738" font-family="Arial, sans-serif" font-size="22" font-weight="700" fill="#172033" text-anchor="middle">Iter31</text><text x="680" y="768" font-family="Arial, sans-serif" font-size="16" font-weight="400" fill="#667085" text-anchor="middle">95% CI 76.2–94.4%</text><text x="900" y="190" font-family="Arial, sans-serif" font-size="28" font-weight="700" fill="#172033" text-anchor="start">Pass rate by maze difficulty</text><circle cx="908" cy="214" r="6" fill="#D14343"/><text x="922" y="220" font-family="Arial, sans-serif" font-size="16" font-weight="600" fill="#667085" text-anchor="start">Base Qwen</text><circle cx="1063" cy="214" r="6" fill="#2563EB"/><text x="1077" y="220" font-family="Arial, sans-serif" font-size="16" font-weight="600" fill="#667085" text-anchor="start">Iter25</text><circle cx="1218" cy="214" r="6" fill="#0F9D6C"/><text x="1232" y="220" font-family="Arial, sans-serif" font-size="16" font-weight="600" fill="#667085" text-anchor="start">Iter31</text><rect x="900" y="230" width="620" height="470" fill="#F7F9FC"/><line x1="1050" y1="290" x2="1050" y2="640" stroke="#D9E1EC"/><text x="1050" y="678" font-family="Arial, sans-serif" font-size="17" font-weight="400" fill="#667085" text-anchor="middle">0%</text><line x1="1262.5" y1="290" x2="1262.5" y2="640" stroke="#D9E1EC"/><text x="1262.5" y="678" font-family="Arial, sans-serif" font-size="17" font-weight="400" fill="#667085" text-anchor="middle">50%</text><line x1="1475" y1="290" x2="1475" y2="640" stroke="#D9E1EC"/><text x="1475" y="678" font-family="Arial, sans-serif" font-size="17" font-weight="400" fill="#667085" text-anchor="middle">100%</text><text x="928" y="348" font-family="Arial, sans-serif" font-size="21" font-weight="700" fill="#172033" text-anchor="start">Easy (n=17)</text><line x1="1050" y1="318" x2="1050" y2="318" stroke="#D14343" stroke-width="4" opacity="0.55"/><circle cx="1050" cy="318" r="8" fill="#D14343"/><text x="1064" y="324" font-family="Arial, sans-serif" font-size="17" font-weight="700" fill="#D14343" text-anchor="start">0%</text><line x1="1050" y1="346" x2="1475" y2="346" stroke="#2563EB" stroke-width="4" opacity="0.55"/><circle cx="1475" cy="346" r="8" fill="#2563EB"/><text x="1461" y="352" font-family="Arial, sans-serif" font-size="17" font-weight="700" fill="#2563EB" text-anchor="end">100%</text><line x1="1050" y1="374" x2="1475" y2="374" stroke="#0F9D6C" stroke-width="4" opacity="0.55"/><circle cx="1475" cy="374" r="8" fill="#0F9D6C"/><text x="1461" y="380" font-family="Arial, sans-serif" font-size="17" font-weight="700" fill="#0F9D6C" text-anchor="end">100%</text><text x="928" y="468" font-family="Arial, sans-serif" font-size="21" font-weight="700" fill="#172033" text-anchor="start">Medium (n=17)</text><line x1="1050" y1="438" x2="1050" y2="438" stroke="#D14343" stroke-width="4" opacity="0.55"/><circle cx="1050" cy="438" r="8" fill="#D14343"/><text x="1064" y="444" font-family="Arial, sans-serif" font-size="17" font-weight="700" fill="#D14343" text-anchor="start">0%</text><line x1="1050" y1="466" x2="1475" y2="466" stroke="#2563EB" stroke-width="4" opacity="0.55"/><circle cx="1475" cy="466" r="8" fill="#2563EB"/><text x="1461" y="472" font-family="Arial, sans-serif" font-size="17" font-weight="700" fill="#2563EB" text-anchor="end">100%</text><line x1="1050" y1="494" x2="1475" y2="494" stroke="#0F9D6C" stroke-width="4" opacity="0.55"/><circle cx="1475" cy="494" r="8" fill="#0F9D6C"/><text x="1461" y="500" font-family="Arial, sans-serif" font-size="17" font-weight="700" fill="#0F9D6C" text-anchor="end">100%</text><text x="928" y="588" font-family="Arial, sans-serif" font-size="21" font-weight="700" fill="#172033" text-anchor="start">Hard (n=16)</text><line x1="1050" y1="558" x2="1050" y2="558" stroke="#D14343" stroke-width="4" opacity="0.55"/><circle cx="1050" cy="558" r="8" fill="#D14343"/><text x="1064" y="564" font-family="Arial, sans-serif" font-size="17" font-weight="700" fill="#D14343" text-anchor="start">0%</text><line x1="1050" y1="586" x2="1315.625" y2="586" stroke="#2563EB" stroke-width="4" opacity="0.55"/><circle cx="1315.625" cy="586" r="8" fill="#2563EB"/><text x="1329.625" y="592" font-family="Arial, sans-serif" font-size="17" font-weight="700" fill="#2563EB" text-anchor="start">62.5%</text><line x1="1050" y1="614" x2="1315.625" y2="614" stroke="#0F9D6C" stroke-width="4" opacity="0.55"/><circle cx="1315.625" cy="614" r="8" fill="#0F9D6C"/><text x="1329.625" y="620" font-family="Arial, sans-serif" font-size="17" font-weight="700" fill="#0F9D6C" text-anchor="start">62.5%</text><rect x="90" y="755" width="1430" height="66" rx="8" fill="#FEF3C7"/><text x="115" y="796" font-family="Arial, sans-serif" font-size="22" font-weight="700" fill="#172033" text-anchor="start">Scope: geometry/navigation only — deterministic greedy replay, 2,000-step limit, ghosts and fruit disabled.</text>
    <line x1="70" y1="842" x2="1530" y2="842" stroke="#D9E1EC" stroke-width="1"/>
    <text x="70" y="876" font-family="Arial, sans-serif" font-size="18" font-weight="400" fill="#667085" text-anchor="start">Base vs Iter25: exact McNemar p=1.14e-13 · Iter25 vs Iter31: p=1.0 · Error bars: Wilson 95% CI.</text>
  </svg>